<svg width="718" height="472" viewBox="0 0 718 472" fill="none" xmlns="http://www.w3.org/2000/svg">
<rect width="718" height="472"/>
<style >
    path{
        fill: transparent;
        stroke: blue;
        stroke-width: 3;
    }

    #g_1{
        
        <!-- stroke-dasharray: 100 3000; -->
        <!-- stroke-dasharray: 2000; -->
        timing-function: linear;
        animation-duration: 8s;
        animation-delay: 0s;
        animation-iteration-count: 1;
        animation-play-state: running;
        animation-name: g_1;
        animation-direction: normal;
        animation--fill-mode: forwards;
        stroker: BLUE;
        
        }
        @keyframes g_1{
            
            0% {

                stroker-width: 3;
                stroke-dasharray: 100 3000;
                stroke-dashoffset: 100;

            }
            100% {

                stroke-width: 3;
                stroke-dasharray: 2000;
                <!-- stroke-dashoffset: 1110; -->
                stroke-dashoffset: 750;
                <!-- fill: black; -->
            }
        
        }

    #g_2{
        
        timing-function: linear;
        animation-duration: 8s;
        animation-delay: 0s;
        animation-iteration-count: 1;
        animation-play-state: running;
        animation-name: g_2;
        animation-direction: normal;
        animation--fill-mode: forwards;
        stroker: BLUE;
        
        }
        @keyframes g_2{
            
            0% {

                stroker-width: 3;
                stroke-dasharray: 100 3000;
                stroke-dashoffset: 100;

            }
            100% {

                stroke-width: 3;
                stroke-dasharray: 2000;
                stroke-dashoffset: 630;
            }
        
        }

    #punto_1{
        
        timing-function: linear;
        animation-duration: 8s;
        animation-delay: 0s;
        animation-iteration-count: 1;
        animation-play-state: running;
        animation-name: punto_1;
        animation-direction: normal;
        animation--fill-mode: forwards;
        stroker: BLUE;
        
        }
        @keyframes punto_1{
            
            0% {

                stroker-width: 3;
                stroke-dasharray: 100 3000;
                stroke-dashoffset: 100;

            }
            100% {

                stroke-width: 3;
                stroke-dasharray: 800;
                stroke-dashoffset: 630;
            }
        
        }

    #ioav{
        
        timing-function: linear;
        animation-duration: 8s;
        animation-delay: 0s;
        animation-iteration-count: 1;
        animation-play-state: running;
        animation-name: ioav;
        animation-direction: normal;
        animation--fill-mode: forwards;
        stroker: BLUE;
        
        }
        @keyframes ioav{
            
            0% {

                stroker-width: 3;
                stroke-dasharray: 100 3000;
                stroke-dashoffset: 100;

            }
            100% {

                stroke-width: 3;
                stroke-dasharray: 1630;
                stroke-dashoffset: 630;
            }
        
        }

    #n{
        
        timing-function: linear;
        animation-duration: 8s;
        animation-delay: 0s;
        animation-iteration-count: 1;
        animation-play-state: running;
        animation-name: n;
        animation-direction: normal;
        animation--fill-mode: forwards;
        stroker: BLUE;
        
        }
        @keyframes n{
            
            0% {

                stroker-width: 3;
                stroke-dasharray: 100 3000;
                stroke-dashoffset: 100;

            }
            100% {

                stroke-width: 3;
                stroke-dasharray: 1028;
                stroke-dashoffset: 630;
            }
        
        }

    #punto_2{
        
        timing-function: linear;
        animation-duration: 8s;
        animation-delay: 0s;
        animation-iteration-count: 1;
        animation-play-state: running;
        animation-name: punto_2;
        animation-direction: normal;
        animation--fill-mode: forwards;
        stroker: BLUE;
        
        }
        @keyframes punto_2{
            
            0% {

                stroker-width: 3;
                stroke-dasharray: 100 3000;
                stroke-dashoffset: 100;

            }
            100% {

                stroke-width: 3;
                stroke-dasharray: 800;
                stroke-dashoffset: 630;
            }
        
        }

    #nim{
        
        timing-function: linear;
        animation-duration: 8s;
        animation-delay: 0s;
        animation-iteration-count: 1;
        animation-play-state: running;
        animation-name: nim;
        animation-direction: normal;
        animation--fill-mode: forwards;
        stroker: BLUE;
        
        }
        @keyframes nim{
            
            0% {

                stroker-width: 3;
                stroke-dasharray: 100 3000;
                stroke-dashoffset: 100;

            }
            100% {

                stroke-width: 3;
                stroke-dasharray: 2430;
                stroke-dashoffset: 630;
            }
        
        }

    #underline_1{
        
        timing-function: linear;
        animation-duration: 8s;
        animation-delay: 0s;
        animation-iteration-count: 1;
        animation-play-state: running;
        animation-name: underline_1;
        animation-direction: normal;
        animation--fill-mode: forwards;
        stroker: BLUE;
        
        }
        @keyframes underline_1{
            
            0% {

                stroker-width: 3;
                stroke-dasharray: 100 3000;
                stroke-dashoffset: 100;

            }
            100% {

                stroke-width: 3;
                stroke-dasharray: 2204;
                stroke-dashoffset: 630;
            }
        
        }

    #underline_2, #underline_3, #underline_4, #underline_5, #underline_6, #underline_7, #underline_8, #underline_9{
        
        timing-function: linear;
        animation-duration: 8s;
        animation-delay: 0s;
        animation-iteration-count: 1;
        animation-play-state: running;
        animation-name: underline;
        animation-direction: normal;
        animation--fill-mode: forwards;
        stroker: BLUE;
        
        }
        @keyframes underline{
            
            0% {

                stroker-width: 3;
                stroke-dasharray: 100 3000;
                stroke-dashoffset: 100;

            }
            100% {

                stroke-width: 3;
                stroke-dasharray: 700;
                stroke-dashoffset: 630;
            }
        
        }

    #givionvavi_1, #givionvavi_2, #givionvavi_3, #givionvavi_4, #givionvavi_5, #givionvavi_6, #givionvavi_7, #givionvavi_8, #givionvavi_9, #givionvavi_10{
        
        timing-function: linear;
        animation-duration: 8s;
        animation-delay: 0s;
        animation-iteration-count: 1;
        animation-play-state: running;
        animation-name: underline;
        animation-direction: normal;
        animation--fill-mode: forwards;
        stroker: BLUE;
        
        }
        @keyframes underline{
            
            0% {

                stroker-width: 3;
                stroke-dasharray: 100 3000;
                stroke-dashoffset: 100;

            }
            100% {

                stroke-width: 3;
                stroke-dasharray: 700;
                stroke-dashoffset: 630;
            }
        

        }

    #underline_10{
        
        timing-function: linear;
        animation-duration: 8s;
        animation-delay: 0s;
        animation-iteration-count: 1;
        animation-play-state: running;
        animation-name: underline_10;
        animation-direction: normal;
        animation--fill-mode: forwards;
        stroker: BLUE;
        
        }
        @keyframes underline_10{
            
            0% {

                stroker-width: 3;
                stroke-dasharray: 100 3000;
                stroke-dashoffset: 100;

            }
            100% {

                stroke-width: 3;
                stroke-dasharray: 1006;
                stroke-dashoffset: 630;
            }
        
        }

    #underline_11{
        
        timing-function: linear;
        animation-duration: 8s;
        animation-delay: 0s;
        animation-iteration-count: 1;
        animation-play-state: running;
        animation-name: underline_11;
        animation-direction: normal;
        animation--fill-mode: forwards;
        stroker: BLUE;
        
        }
        @keyframes underline_11{
            
            0% {

                stroker-width: 3;
                stroke-dasharray: 100 3000;
                stroke-dashoffset: 100;

            }
            100% {

                stroke-width: 3;
                stroke-dasharray: 702;
                stroke-dashoffset: 630;
            }
        
        }

    #underline_12{
        
        timing-function: linear;
        animation-duration: 8s;
        animation-delay: 0s;
        animation-iteration-count: 1;
        animation-play-state: running;
        animation-name: underline_12;
        animation-direction: normal;
        animation--fill-mode: forwards;
        stroker: BLUE;
        
        }
        @keyframes underline_12{
            
            0% {

                stroker-width: 3;
                stroke-dasharray: 100 3000;
                stroke-dashoffset: 100;

            }
            100% {

                stroke-width: 3;
                stroke-dasharray: 1100;
                stroke-dashoffset: 630;
            }
        
        }

    #N_1993_1, #N_1993_2, #N_1993_3, #N_1993_4{
        
        timing-function: linear;
        animation-duration: 8s;
        animation-delay: 0s;
        animation-iteration-count: 1;
        animation-play-state: running;
        animation-name: N_1993;
        animation-direction: normal;
        animation--fill-mode: forwards;
        stroker: BLUE;
        
        }
        @keyframes N_1993{
            
            0% {

                stroker-width: 3;
                stroke-dasharray: 100 3000;
                stroke-dashoffset: 100;

            }
            100% {

                stroke-width: 3;
                stroke-dasharray: 711;
                stroke-dashoffset: 630;
            }
        

        }
</style>
<path d="M634.4 205.467C631.2 207.333 631.467 209.067 634.933 209.6C639.067 210.133 640.933 218.667 637.2 219.6C634.133 220.4 633.867 222.133 636.667 223.067C637.6 223.467 639.867 222.8 641.467 221.467C644.267 219.2 644.267 219.2 641.867 211.6C639.467 203.867 638.4 203.067 634.4 205.467Z" fill="black" id="N_1993_4"/>
<path d="M605.867 210.667C602.4 212 599.6 215.6 600.667 217.333C601.867 219.333 604 218.933 604 216.8C604 214.667 608.933 212.533 610.4 214C610.933 214.533 609.867 216 608.133 217.467C605.2 219.867 605.2 220 607.733 220C609.2 220 610.667 221.067 611.067 222.667C611.6 224.667 610.933 225.6 608.533 226.133C604.133 227.2 604.533 229.333 609.2 229.333C615.2 229.333 616.533 226.8 614.533 218.133C612.667 210.533 610.8 208.933 605.867 210.667Z" fill="black" id="N_1993_3"/>
<path d="M570.4 220.133C564.267 223.6 564.933 233.2 571.067 231.467C579.2 229.067 580.267 229.067 578.667 232C577.2 234.8 576.133 235.2 571.067 234.667C568.8 234.533 568.267 235.067 568.8 236.533C570 239.6 573.067 240.133 578 238.133C580.933 236.8 582.933 234.933 583.467 232.8C584.4 228.933 583.2 222.933 581.067 220.4C579.467 218.4 573.6 218.267 570.4 220.133ZM578.667 223.067C578.667 225.733 575.733 228 572.4 228C568.8 228 568.533 227.067 571.6 223.733C574.133 220.933 578.667 220.533 578.667 223.067Z" fill="black" id="N_1993_2"/>
<path d="M534.933 236.667C532.667 245.333 532.667 245.6 538.4 244.667C546.933 243.2 546.933 243.2 542.4 236.8C540 233.467 537.733 230.8 537.333 230.8C536.933 230.667 535.867 233.333 534.933 236.667ZM540.4 242.267C539.467 242.533 537.867 242.533 537.067 242.267C536.133 241.867 536.8 241.6 538.667 241.6C540.533 241.6 541.2 241.867 540.4 242.267Z" fill="black" id="N_1993_1"/>
<path d="M626.133 264.8C628.267 272.133 627.467 280.4 623.467 288C615.733 303.2 604.4 313.467 588.533 319.467C580.933 322.267 554.267 329.333 551.067 329.333C550.533 329.333 555.067 324.267 561.333 318C567.6 311.733 572 306.667 571.2 306.667C570.4 306.667 566.533 310 562.533 314C551.467 325.467 542.8 331.6 534.267 334C530 335.2 526.133 335.867 525.733 335.467C525.2 335.067 527.733 332.133 531.067 328.933C542.533 318.4 537.333 317.2 521.333 326.667C516.533 329.467 511.2 333.067 509.333 334.667C507.467 336.267 504.533 338.8 502.667 340.267C500.4 342.267 500 343.333 501.2 343.733C502.133 344 505.467 341.867 508.4 339.067C514 333.733 522.933 327.333 529.333 324C532.933 322.267 533.067 321.867 523.067 333.067C520.267 336 521.067 338.667 524.4 338.667C526.133 338.667 531.067 337.467 535.467 335.867C539.733 334.4 545.2 332.933 547.6 332.667C556.267 331.467 579.733 325.467 588.4 322.133C608.267 314.667 623.467 298.667 629.333 279.333C631.067 273.467 629.467 263.733 626.4 261.867C625.333 261.2 625.333 262 626.133 264.8Z" fill="black" id="underline_12"/>
<path d="M494.667 332.133C486.933 336.933 473.067 349.6 474.4 350.933C475.067 351.6 479.067 348.8 483.867 344.133C488.267 339.6 494.4 334.8 497.333 333.333C500.267 331.867 502.667 330.267 502.667 330C502.667 328.533 499.067 329.467 494.667 332.133Z" fill="black" id="underline_11"/>
<path d="M458 341.867C437.6 352.667 423.733 357.467 370.667 372.267C346.667 378.933 346.933 380.933 371.067 374.667C391.467 369.467 429.733 358 433.467 356C434.933 355.067 436.533 354.667 436.8 354.933C437.467 355.733 419.067 384 414.933 388.4C412.133 391.333 411.733 392.267 413.2 393.733C414.533 394.933 415.2 394.933 415.6 393.733C415.867 392.8 418 389.6 420.133 386.4C422.4 383.2 428.133 374.667 432.933 367.333C442.267 353.2 443.333 352 450.933 348C457.6 344.4 457.733 344.533 453.867 350.267C451.867 353.2 451.067 355.6 451.867 356.4C453.467 358 458.267 356.4 459.2 353.867C459.733 352.267 459.467 351.867 458 352.533C456.933 352.933 456 352.667 456 352C456 350.133 466.8 340.133 469.733 339.2C472.267 338.4 472.8 336 470.4 336.133C469.467 336.133 463.867 338.8 458 341.867Z" fill="black" id="underline_10"/>
<path d="M549.733 369.867C550.133 370.933 550.933 374 551.467 376.533C552.4 381.6 554.667 383.2 554.667 378.8C554.667 373.2 552.933 368 551.067 368C549.867 368 549.333 368.8 549.733 369.867Z" fill="black" id="givionvavi_10"/>
<path d="M530.667 374.267C530.667 374.933 530.133 376.267 529.333 377.333C528.4 378.933 527.733 378.933 525.467 376.667C520.8 372.533 521.067 375.2 525.867 380.8C528.4 383.6 530.667 385.733 531.2 385.333C532.8 383.733 533.6 373.333 532.133 373.333C531.333 373.333 530.667 373.733 530.667 374.267Z" fill="black" id="givionvavi_9"/>
<path d="M502.267 380.933C501.733 381.333 501.333 384.533 501.333 387.867C501.333 392.533 501.733 393.467 502.933 392.267C503.867 391.333 505.867 390.667 507.6 390.667H510.667L508 385.333C505.333 380.133 504 379.067 502.267 380.933Z" fill="black" id="givionvavi_8"/>
<path d="M482 390.667C482.8 395.067 482.533 396 480.8 396C479.333 396 478.667 394.8 478.667 392.133C478.667 388.667 476 385.867 474.267 387.467C473.333 388.4 476.133 398.667 477.467 398.667C478 398.667 480 398.133 481.867 397.333C485.333 396 486.4 392.267 484.533 387.467C482.933 383.067 481.067 385.333 482 390.667Z" fill="black" id="givionvavi_7"/>
<path d="M454.133 391.733C453.733 392.533 453.733 394 454.133 395.067C455.2 397.867 452.667 399.067 450.667 396.667C447.467 392.8 445.2 394.267 445.6 399.6C445.867 402.4 446.667 404.533 447.333 404.267C448.133 404 448.533 403.067 448.533 402C448.4 400.533 449.067 400.667 452.8 402.133C458.933 404.667 458.933 404.667 457.867 398.933C456.8 392.667 455.333 389.867 454.133 391.733Z" fill="black" id="givionvavi_6"/>
<path d="M422 399.733C415.733 401.067 414.133 405.867 418.533 409.867C421.867 412.8 429.333 411.6 429.333 408.267C429.2 401.333 426.933 398.667 422 399.733ZM425.333 403.6C425.333 404.933 424.667 406.933 424 408C422.8 409.733 422.4 409.6 420.667 407.467C419.2 405.6 419.067 404.4 420.133 403.067C422.267 400.533 425.333 400.933 425.333 403.6Z" fill="black" id="givionvavi_5"/>
<path d="M378 415.6C378.4 417.733 379.467 419.867 380.267 420.667C381.333 421.6 381.467 421.2 380.8 419.6C380.4 418.267 380 416 380 414.533C380 413.2 379.333 412 378.533 412C377.6 412 377.333 413.333 378 415.6Z" fill="black" id="givionvavi_4"/>
<path d="M364.4 417.067C363.333 419.867 363.067 420 361.467 418.133C360.4 416.933 358.8 416 357.733 416C356.533 416 357.333 417.867 360.267 421.467L364.667 426.933L365.733 422.667C367.2 416.933 366.267 412.8 364.4 417.067Z" fill="black" id="givionvavi_3"/>
<path d="M334.533 421.6C330.133 423.067 328.933 426.933 331.6 430.667C335.2 435.733 344.667 431.333 343.067 425.2C342.133 421.6 338.667 420.133 334.533 421.6ZM339.733 425.733C340.4 428.8 334.933 431.467 333.867 428.667C332.933 426.267 335.733 422.4 337.867 423.067C338.667 423.333 339.467 424.533 339.733 425.733Z" fill="black" id="givionvavi_2"/>
<path d="M304.533 438.4C301.733 440.933 301.067 442.267 301.733 445.067C302.667 448.667 305.333 449.867 310.267 448.933C313.867 448.267 315.467 444 313.333 441.333C310.8 438.267 309.2 438.933 310.133 442.667C310.8 445.467 310.533 446 308.267 446C306.667 446 305.2 445.467 304.8 444.8C303.733 443.067 305.333 439.333 307.2 439.333C308 439.333 309.867 438.4 311.2 437.333C313.733 435.333 313.733 435.333 310.933 435.333C309.467 435.333 306.533 436.667 304.533 438.4Z" fill="black" id="givionvavi_1"/>
<path d="M469.333 294.267C469.333 298.933 473.467 311.067 474.667 309.867C476.267 308.267 472.933 292.933 470.933 292.267C470 292 469.333 292.933 469.333 294.267Z" fill="black"  id="underline_9"/>
<path d="M457.333 308.267C457.333 309.467 458 310.933 458.667 311.333C460.4 312.4 460.4 310.667 458.667 308C457.6 306.267 457.333 306.267 457.333 308.267Z" fill="black"  id="underline_8"/>
<path d="M426.533 307.6C424.667 308 424.533 308.8 425.867 313.467C427.6 319.333 427.6 319.333 433.333 318.133C438.8 317.067 438.533 314.533 433.067 315.467C429.733 316 429.2 315.867 430.667 314.8C432 313.867 432.133 313.333 431.067 313.333C430.133 313.333 429.333 312.667 429.333 311.867C429.333 311.067 430.133 310.667 431.2 311.067C432.8 311.733 434.667 309.6 434.667 307.2C434.667 306.533 429.467 306.8 426.533 307.6Z" fill="black"  id="underline_7"/>
<path d="M405.867 316.933C404.533 318.933 403.2 320.933 402.933 321.333C402.667 321.733 401.867 320.933 401.2 319.6C398.8 315.467 396.933 317.067 397.733 322.667L398.4 327.867L395.067 324C393.2 321.733 390.8 320 389.6 320C388 320 388.8 321.467 392.267 324.933C397.067 329.733 397.333 329.867 400 327.333C402 325.6 402.667 325.467 402.667 326.8C402.667 330.133 406.4 324.933 407.867 319.467C409.6 312.8 408.933 312 405.867 316.933Z" fill="black"  id="underline_6"/>
<path d="M366.4 325.867C360.8 328.667 362.267 336 368.533 336C373.467 336 376.533 332.933 375.6 329.067C374.533 325.067 370.8 323.733 366.4 325.867ZM371.733 329.6C371.067 334.133 366.667 334.533 366.667 330.133C366.667 327.467 367.333 326.667 369.467 326.667C371.467 326.667 372.133 327.333 371.733 329.6Z" fill="black"  id="underline_5"/>
<path d="M344.133 331.733C342.4 335.867 342.267 336 339.867 333.867C335.2 329.733 334.533 332.8 339.2 337.2L343.867 341.733L345.333 338C346.133 335.867 346.533 332.667 346.267 330.8C345.867 327.467 345.733 327.467 344.133 331.733Z" fill="black"  id="underline_4"/>
<path d="M304.8 337.2C300.4 342 306.267 348.667 312.667 346.133C315.467 345.067 317.333 339.867 315.733 336.933C314.133 333.867 307.733 334 304.8 337.2ZM312.667 339.333C312.667 341.067 311.6 342.133 309.733 342.4C307.467 342.8 306.667 342.133 306.667 340.267C306.667 338.933 307.067 337.333 307.6 336.8C309.333 335.067 312.667 336.667 312.667 339.333Z" fill="black" id="underline_3"/>
<path d="M277.333 344.533C277.333 345.067 278 346.533 278.8 347.867C281.067 351.333 279.2 357.333 276 357.333C274.533 357.333 273.333 357.867 273.333 358.667C273.333 360.667 279.467 360.267 281.2 358.133C283.733 355.2 282.533 344.8 279.733 344.267C278.4 344 277.333 344.133 277.333 344.533Z" fill="black" id="underline_2"/>
<path d="M680.933 134.8C656.533 147.2 607.2 167.467 561.333 184C520 198.933 503.333 204.667 450.667 222C391.2 241.733 343.6 258.267 314.667 269.333C269.733 286.533 236.533 307.6 218.933 330C215.6 334.4 212.267 338.133 211.733 338.4C211.067 338.667 210.667 339.733 210.667 340.667C210.667 341.6 209.2 345.467 207.2 349.2C205.333 352.933 203.2 359.2 202.4 363.2C200.933 369.733 201.067 370.8 204.133 376.8C206.133 380.8 209.467 384.8 212.933 387.2C218.267 390.8 218.667 390.933 221.733 388.933C224.8 386.933 225.2 387.067 228.8 390.933C234.533 396.933 242.267 400.933 252.667 403.333C264 406 274.4 405.2 290.667 400.4C296.933 398.533 303.067 397.067 304.267 397.067C307.2 397.2 318.133 387.467 320.667 382.533C321.733 380.533 322.667 377.2 322.667 375.333C322.667 372.4 322.133 371.867 319.733 372.267C317.467 372.533 315.467 375.067 312.267 381.733C308.533 389.467 306.933 391.2 301.467 393.867C294.267 397.6 274.133 402.667 266.933 402.667C260.267 402.667 246.267 399.2 240.267 396.133C235.467 393.733 225.333 383.6 222.667 378.667C222 377.333 221.333 372.933 221.333 368.933C221.333 360.533 223.333 357.867 228.933 359.333C232 360 232.267 359.867 230.8 358.133C228.4 355.333 226.4 355.467 222.133 358.8C219.333 360.933 218.667 362.667 218.667 367.333C218.667 370.4 219.6 375.2 220.667 377.733C221.733 380.4 222.667 383.2 222.667 383.867C222.667 386.133 217.067 386.933 213.733 385.2C209.733 383.067 204 373.6 204 369.2C204.133 361.2 216.267 336.533 219.067 338.267C219.867 338.8 220.133 338.133 219.6 336.8C219.067 335.6 219.2 334.933 219.867 335.333C221.467 336.267 223.333 333.467 223.333 330.133C223.333 328.667 224.133 327.333 225.2 326.933C226.533 326.533 226.8 326.933 226.267 328.533C225.467 330.533 225.6 330.533 228.667 328.533C232.4 326.133 232.933 324.533 230.4 323.6C228.4 322.933 236 315.6 245.067 309.067C250 305.6 250.667 305.467 249.467 307.867C248.533 309.333 247.467 310.667 246.933 310.667C245.6 310.8 234.667 320.667 234.667 321.867C234.667 322.4 235.467 322.133 236.4 321.467C237.2 320.667 240.133 318.4 242.667 316.267C253.733 307.2 285.6 286.667 288.667 286.667C289.2 286.667 291.2 285.6 293.067 284.267C303.333 277.333 361.867 255.733 434.667 232.133C559.733 191.467 624 168.133 679.867 143.067C690.533 138.267 701.2 134.133 703.6 133.733C708.267 132.933 709.467 130.133 705.867 128.8C700.533 126.667 693.467 128.4 680.933 134.8ZM321.333 375.6C321.2 377.733 315.2 387.2 313.6 387.733C312.267 388.133 312.4 387.067 314 383.2C315.067 380.533 316.667 377.467 317.467 376.4C319.067 374.533 321.333 374 321.333 375.6Z" fill="black" id="underline_1"/>
<path d="M662.133 6.5333C661.6 7.46664 661.467 9.7333 661.867 11.7333C662.533 14.1333 662.4 14.6666 661.467 13.4666C660.533 12 660.133 12.4 659.333 14.8C656.533 23.6 642.133 55.3333 636.8 64.5333C633.333 70.2666 628.8 78.2666 626.533 82.4L622.667 89.7333V78.5333C622.533 60.8 620.667 50.8 616.667 46.8C614 44.1333 612.8 43.6 611.067 44.8C608.933 46.1333 602.933 58.6666 592.267 84.5333L587.333 96.4L586.533 87.3333C585.867 80 585.2 77.7333 582.667 75.7333C574 68.6666 569.2 74.1333 547.6 116C540 131.067 532.667 145.067 531.467 147.333C530.267 149.467 528.4 153.733 527.2 156.667C523.2 166.133 523.6 158.267 527.867 139.333C532.4 119.733 532.267 117.6 525.6 111.6C522.933 109.067 522.8 109.2 520.133 118.267C518.667 123.2 515.867 133.6 514 141.333C509.067 161.067 498.267 182.133 495.467 177.467C494.533 176.133 499.2 140.667 501.2 133.733C502.133 130.533 501.867 128.667 499.867 125.467C498.533 123.2 496.4 121.333 495.333 121.333C492.667 121.333 485.733 132.267 472.267 158C466.133 169.733 461.333 178.4 461.733 177.333C462 176.267 464.8 167.333 468 157.6L473.733 139.867L471.067 136.267C466 129.6 464.8 130.8 459.6 147.6C452.933 168.933 448 188.933 448 195.067C448 199.2 448.533 200.267 451.467 201.333C457.2 203.6 458.533 202.933 461.6 195.6C469.867 176.133 492.533 133.467 490.133 142C483.867 164.267 482.8 180.267 487.2 185.2C490.267 188.667 496 188.8 499.733 185.6C501.333 184.4 504.667 179.733 507.2 175.333C510.4 170 512 168.267 512 170.133C512 173.333 517.2 178.667 520.267 178.667C521.467 178.667 523.067 177.733 524 176.667C526.267 173.867 536.267 154.533 556.8 112.667C568.8 88 572.667 82.1333 574.8 85.4666C577.6 90 575.733 101.467 566.4 137.2L559.6 163.067L562.8 165.467C566.533 168.4 567.867 168.533 568.667 166.267C575.6 145.867 600.4 81.7333 605.867 70.4L610.4 60.6666L610.8 66.6666C611.733 85.8666 609.867 101.067 603.733 124.667C598.133 146.133 597.733 150.267 600.8 152.667C602.267 153.733 603.733 154.667 604.267 154.667C604.667 154.667 606.667 150.267 608.667 144.933C617.867 120.8 645.333 60 647.2 60C647.467 60 646.667 64.4 645.2 69.6C637.333 97.6 633.333 126.267 635.867 135.467C638.8 146.4 644.933 147.867 654.133 139.733C664.4 130.667 689.6 87.3333 691.6 75.4666C692.8 67.8666 689.2 69.4666 685.333 78.4C680 90.8 661.733 120.133 654 128.533L646.8 136.533L645.867 132.667C644.533 127.333 650.667 91.0666 658 60C664.4 33.6 666.667 14.2666 664.4 8.1333C663.467 5.86664 662.8 5.3333 662.133 6.5333ZM660.133 20.9333C658.533 23.6 658.267 22.8 659.467 19.3333C660 18.1333 660.667 17.4666 660.933 17.8666C661.333 18.1333 660.933 19.6 660.133 20.9333ZM657.467 27.6C655.867 30.2666 655.6 29.4666 656.8 26C657.333 24.8 658 24.1333 658.267 24.5333C658.667 24.8 658.267 26.2666 657.467 27.6Z" fill="black" id="nim"/>
<path d="M531.467 72.2667C528.533 77.2 526.4 85.2 527.2 88.5333C527.6 90.2667 529.467 92.6667 531.333 93.8667L534.667 96.1333L537.333 90C540.533 82.5333 540.8 76.2667 537.867 72.2667C535.333 68.5333 533.867 68.5333 531.467 72.2667Z" fill="black" id="punto_2"/>
<path d="M434.933 140.267C430.533 147.333 416 177.067 416 178.8C416 179.733 415.6 180.133 415.2 179.6C414.8 179.2 415.333 176 416.533 172.4C420.533 160 420.667 155.6 416.933 151.2C414.267 148.267 413.333 147.733 412.8 149.333C410.8 154.933 397.333 211.333 397.333 214.133C397.333 217.467 402.133 221.067 404.133 219.067C404.8 218.4 407.6 212.533 410.533 206C425.333 171.867 436 150.133 436 153.733C436 154.4 434.8 159.6 433.333 165.333C428.933 182.4 425.333 202.4 425.333 209.333C425.333 215.867 426.8 218.533 432.133 221.333C434.4 222.667 434.667 222.267 434.667 216.8C434.667 213.467 436.267 202.533 438.133 192.4C440 182.267 442.667 167.067 444 158.667C446.4 143.867 446.4 143.2 444.133 140C440.667 135.2 438 135.2 434.933 140.267Z" fill="black" id="n"/>
<path d="M397.6 152C396.933 153.867 393.467 164 389.867 174.667C383.467 194.4 374.133 215.867 370 220.667C367.867 223.2 367.867 222.933 368.533 214.667C368.933 209.867 371.333 198.533 373.867 189.6C378.4 174 378.533 172.933 376.533 169.467C375.467 167.6 373.067 165.333 371.333 164.533C367.467 162.667 367.467 162.8 361.333 188C357.2 204.933 348.933 224.133 343.867 228.667C341.467 231.067 341.333 230.933 341.333 226.267C341.333 223.6 342.933 213.2 344.933 203.2L348.4 184.933L344.533 181.733L340.667 178.667L339.467 181.733C338.667 183.333 338 184.933 337.867 185.2C337.6 185.333 336.133 184.667 334.4 183.467C325.6 177.2 316.8 184.533 305.6 206.933C301.067 216.133 297.067 222.267 294.533 224.133L290.667 226.8L290.533 217.733C290.533 204.933 288.533 199.867 282.133 196.8C277.467 194.533 276.667 194.533 272.667 196.4C266.933 199.2 257.6 217.067 252 236.667C246.667 255.067 236.667 274.4 233.867 271.6C232.8 270.667 235.733 255.2 240.533 236C243.867 222.4 243.6 219.6 237.6 214.267C235.067 212 234.933 212 233.467 215.6C229.867 224.533 223.733 252.4 223.067 263.6C222.267 275.333 222.4 275.867 225.733 279.2C227.6 281.067 230.533 282.667 232.133 282.667C235.867 282.667 245.067 272.933 248.8 265.467C250.133 262.4 251.6 260 252 260C252.4 260 253.867 261.733 255.067 264C262.133 276 277.333 264.267 284 241.733C285.067 238.4 286.8 235.733 288.267 235.2C289.6 234.8 292.533 232.933 294.8 231.067L298.8 227.6L297.867 237.733L296.933 247.733L301.067 248.667C305.2 249.467 310.667 247.6 310.667 245.333C310.667 244.667 314.933 236.4 320 227.2C325.2 217.867 329.333 209.733 329.333 209.2C329.333 208.667 329.867 207.867 330.533 207.467C331.2 206.933 331.2 208.8 330.533 211.733C328 222.933 329.6 234.533 334.4 238.133C340.133 242.533 346.667 238.8 353.2 227.6C356.133 222.533 357.333 221.467 357.333 223.6C357.333 225.2 358.8 228.267 360.533 230.267C363.733 233.867 364 233.867 367.6 232C371.467 229.867 383.733 212.933 384 209.333C384 208.267 385.333 209.733 386.8 212.667C388.133 215.6 389.867 218.4 390.533 219.067C391.867 220.4 393.733 214.533 395.333 204C395.867 200.667 398.4 190.8 400.8 182.133C406.267 162.8 406.533 157.467 402.133 152.4L398.933 148.667L397.6 152ZM330.667 191.467C330.667 193.733 310.4 230.933 309.6 230C308.533 228.933 313.733 213.867 318.267 204.8C324.533 192.133 330.667 185.6 330.667 191.467ZM278.667 210.933C278.8 213.333 279.867 218.533 281.2 222.267C283.467 229.2 283.467 229.333 281.067 229.333C278 229.333 273.333 221.867 273.333 217.067C273.333 212.933 275.867 206.667 277.6 206.667C278.133 206.667 278.667 208.667 278.667 210.933ZM275.6 234.533L278.533 236L274.933 243.733C269.733 254.667 265.6 261.333 264.133 261.333C260.533 261.333 260 244 263.333 232.533L265.6 224.8L269.067 228.933C271.067 231.2 274 233.733 275.6 234.533Z" fill="black" id="ioav"/>
<path d="M240.533 170C239.467 172.667 238.267 177.333 237.733 180.667C237.067 186 237.333 186.933 241.2 190.667C243.467 192.933 245.867 194.533 246.533 194C248.8 192.667 252.4 179.2 251.6 175.733C250.533 171.867 245.733 165.333 243.867 165.333C243.067 165.333 241.6 167.467 240.533 170Z" fill="black" id="punto_1"/>
<path d="M227.333 50.2667C221.467 51.6 201.6 60.6667 194.667 65.2C170.533 80.6667 152.933 94.9333 131.733 115.733C115.867 131.333 109.867 137.867 93.3333 158.267C88.9333 163.733 82.5333 169.333 75.0667 174.267C60.6667 183.733 39.8667 204.267 31.7333 216.667C18.2667 237.333 10 258 8.8 274.267C8.4 279.733 8.66667 284 9.33333 284C10 284 10.2667 285.333 9.86667 287.067C9.6 288.8 10.2667 291.333 11.3333 292.8C12.4 294.133 13.3333 294.667 13.3333 293.733C13.3333 292.933 12.6667 291.733 12 291.333C10.2667 290.267 11.6 288 14.1333 288C15.2 288 16 288.933 16 290C16 291.867 21.6 302.533 25.3333 307.467C27.8667 310.933 37.0667 316.933 41.3333 318L44.8 318.8L46.4 303.733C49.8667 270 67.2 224.933 91.2 186C114.533 148.4 119.467 142.133 150 111.467C181.733 79.4667 214.4 58.6667 232.8 58.6667C241.067 58.6667 243.333 61.4667 244.533 72.5333C245.333 80.5333 244.933 82.8 240.533 95.8667C235.467 111.333 234.133 112.8 226.667 111.2C223.733 110.533 223.6 110.667 225.733 112C227.067 112.933 229.333 113.333 230.8 112.933C235.333 111.733 234.667 113.2 222.8 131.333C214.4 144.267 194.933 164 182 172.8C170.8 180.4 155.733 186.533 148.267 186.667C145.333 186.667 142.8 185.6 140.4 183.2C137.2 180 137.067 179.333 137.867 170.533C138.933 160.267 138 159.2 132.667 164.533C128.933 168.267 127.067 176.133 129.2 179.6C130.533 181.6 130.667 181.2 130 177.6C129.467 175.067 129.733 173.333 130.4 173.333C131.2 173.333 132.267 175.333 132.667 177.6C133.2 180 134.8 183.6 136.133 185.467C137.467 187.333 138.133 189.333 137.6 189.867C137.067 190.4 137.333 190.667 138 190.533C138.8 190.267 140.8 190.933 142.533 191.867C149.733 195.867 164.933 191.6 188.667 179.067C197.733 174.267 204 169.467 214.667 159.333C228.4 146.267 232 141.867 242.667 126.267C250.933 114 258.667 90.8 258.667 77.8667C258.667 69.2 255.067 59.3333 250.667 55.4667C244.533 50.4 235.467 48.4 227.333 50.2667ZM246 105.333C246.4 106 246.133 106.667 245.467 106.667C244.667 106.667 244 106 244 105.333C244 104.533 244.267 104 244.533 104C244.933 104 245.6 104.533 246 105.333ZM77.3333 181.867C77.3333 182.133 74.9333 185.867 72.1333 190.133C53.8667 217.467 30.8 272.533 26.8 298.267L25.7333 304.667L24.1333 298.667C21.4667 289.6 23.0667 267.467 27.3333 252.8C33.6 231.333 44.5333 211.067 58.1333 196.133C66.4 186.933 77.3333 178.8 77.3333 181.867ZM15.6 282.133C15.2 282.533 14 282.667 13.0667 282.267C12 281.867 12.4 281.467 13.8667 281.467C15.3333 281.333 16.1333 281.733 15.6 282.133Z" fill="black" id="g_1"/>
<path d="M192.533 202.4C185.333 207.6 178.133 216 161.867 238C124.8 287.867 116.133 297.6 98.5334 308.267C89.2 313.867 75.4667 317.6 62.6667 317.6C57.8667 317.733 55.0667 318 56.4 318.267C57.7334 318.667 58.5334 319.867 58.4 321.067C58 322.933 59.4667 323.467 66.1334 323.733C87.3334 324.8 114.4 312.267 132.933 293.067C138.933 286.8 152.533 268.667 171.333 242C183.467 224.667 194 212 196.133 212C196.8 212 197.067 213.333 196.8 214.933C196.4 216.667 195.2 223.067 194 229.333C190.533 247.867 181.6 283.733 177.067 297.333C163.733 337.867 136.667 375.067 111.733 387.333C103.333 391.467 99.4667 392.533 91.3334 393.067C82.5334 393.6 80.5334 393.333 74 390.133C68.2667 387.2 66.6667 385.867 66.6667 383.333C66.6667 377.867 77.2 358.933 84.9334 350.667C90.8 344.4 91.7334 342.667 89.7334 342.667C88.2667 342.667 85.0667 344 82.5334 345.733C76.6667 349.6 64.9334 365.333 62.6667 372.133C61.6 375.067 60.4 377.733 59.8667 378.133C58.2667 379.067 50.8 362.4 48 351.2C46.5334 345.467 45.3334 336.667 45.3334 331.333V321.867L38.6667 319.467C35.0667 318.133 32 316.4 32 315.6C32 314.8 31.6 314.667 31.0667 315.067C30.6667 315.6 29.0667 315.067 27.7334 313.733C26.4 312.533 25.0667 311.867 24.9333 312.133C24.6667 312.4 24.9333 318.8 25.4667 326.267C27.3334 348.933 35.3334 368.8 48.8 384.133L56.6667 392.933L56.1334 400.667C53.3334 447.867 100.667 476.8 142.267 453.067C163.467 441.067 173.067 423.2 185.2 372.533C198.267 318.533 200.4 311.467 212.667 282.133C219.2 266.4 219.867 261.333 215.867 257.467C211.6 253.467 209.733 254 207.333 259.6C204.667 266 197.2 277.6 196.4 276.8C196 276.4 196.933 272 198.4 267.067C204.133 248.533 208.133 229.733 208.933 217.733C209.733 205.867 209.6 205.467 206.267 202.133C201.867 197.733 198.933 197.733 192.533 202.4ZM196 280C196 280.667 195.333 281.333 194.533 281.333C193.867 281.333 193.6 280.667 194 280C194.4 279.2 195.067 278.667 195.467 278.667C195.733 278.667 196 279.2 196 280ZM174.533 358.133C167.2 412.8 151.2 442.267 123.2 452.267C93.7334 462.667 64.2667 440 64 407.067C64 401.2 65.7334 398.933 68.4 401.067C71.3334 403.467 84.4 406.667 91.6 406.667C113.467 406.667 145.467 382.933 168 350C173.333 342.267 176.267 338.533 176.667 338.933C176.933 339.2 175.867 347.733 174.533 358.133Z" fill="black" id="g_2"/>
</svg>
